<svg version="1.1" viewBox="0.0 0.0 960.0 720.0" fill="none" stroke="none" stroke-linecap="square" stroke-miterlimit="10" xmlns:xlink="http://www.w3.org/1999/xlink" xmlns="http://www.w3.org/2000/svg"><clipPath id="p.0"><path d="m0 0l960.0 0l0 720.0l-960.0 0l0 -720.0z" clip-rule="nonzero"/></clipPath><g clip-path="url(#p.0)"><path fill="#000000" fill-opacity="0.0" d="m0 0l960.0 0l0 720.0l-960.0 0z" fill-rule="evenodd"/><path fill="#000000" d="m795.0866 486.2362l-582.2047 -335.62204l-47.968506 83.14961l582.2047 335.622z" fill-rule="evenodd"/><path stroke="#000000" stroke-width="1.0" stroke-linejoin="round" stroke-linecap="butt" d="m795.0866 486.2362l-582.2047 -335.62204l-47.968506 83.14961l582.2047 335.622z" fill-rule="evenodd"/><path fill="#000000" d="m213.01855 569.52765l581.98425 -336.0l-48.0 -83.1181l-581.98425 336.0z" fill-rule="evenodd"/><path stroke="#000000" stroke-width="1.0" stroke-linejoin="round" stroke-linecap="butt" d="m213.01855 569.52765l581.98425 -336.0l-48.0 -83.1181l-581.98425 336.0z" fill-rule="evenodd"/><path fill="#000000" d="m256.0 360.0l96.0 -191.99991l256.0 0l96.0 191.99991l-96.0 191.99994l-256.0 0z" fill-rule="evenodd"/><path stroke="#000000" stroke-width="1.0" stroke-linejoin="round" stroke-linecap="butt" d="m256.0 360.0l96.0 -191.99991l256.0 0l96.0 191.99991l-96.0 191.99994l-256.0 0z" fill-rule="evenodd"/><path fill="#ffffff" d="m346.90802 402.7668c-24.887543 -60.23816 -6.2126465 -129.68216 45.531586 -169.3125c51.744263 -39.630325 123.655426 -39.565186 175.32779 0.15882874c51.672363 39.724014 70.221375 109.20174 45.22473 169.39473z" fill-rule="evenodd"/><path stroke="#000000" stroke-width="1.0" stroke-linejoin="round" stroke-linecap="butt" d="m346.90802 402.7668c-24.887543 -60.23816 -6.2126465 -129.68216 45.531586 -169.3125c51.744263 -39.630325 123.655426 -39.565186 175.32779 0.15882874c51.672363 39.724014 70.221375 109.20174 45.22473 169.39473z" fill-rule="evenodd"/><path fill="#ffffff" d="m576.00836 443.95294l-18.007874 72.034424l-155.98425 0.02557373l-18.007874 -72.0285z" fill-rule="evenodd"/><path stroke="#000000" stroke-width="1.0" stroke-linejoin="round" stroke-linecap="butt" d="m576.00836 443.95294l-18.007874 72.034424l-155.98425 0.02557373l-18.007874 -72.0285z" fill-rule="evenodd"/></g></svg>